<?xml version="1.0" encoding="UTF-8"?>
<svg width="18px" height="21px" viewBox="0 0 18 21" version="1.1" xmlns="http://www.w3.org/2000/svg" xmlns:xlink="http://www.w3.org/1999/xlink">
    <!-- Generator: Sketch 52.6 (67491) - http://www.bohemiancoding.com/sketch -->
    <title>pdf-2</title>
    <desc>Created with Sketch.</desc>
    <g id="Desktop" stroke="none" stroke-width="1" fill="none" fill-rule="evenodd">
        <g id="application-process-pre-application" transform="translate(-606.000000, -1688.000000)">
            <g id="form" transform="translate(0.000000, 1210.000000)">
                <g id="input" transform="translate(585.000000, 429.000000)">
                    <g id="pdf-2" transform="translate(21.000000, 49.000000)">
                        <path d="M4.10526316,0 C3.41052632,0 2.84210526,0.586184211 2.84210526,1.30263158 L2.84210526,19.5394737 C2.84210526,20.2559211 3.41052632,20.8421053 4.10526316,20.8421053 L16.7368421,20.8421053 C17.4315789,20.8421053 18,20.2559211 18,19.5394737 L18,5.21052632 L12.9473684,0 L4.10526316,0 Z" id="Path" fill="#E2E5E7"></path>
                        <path d="M14.4473684,5.68421053 L18,5.68421053 L13.2631579,0 L13.2631579,4.26315789 C13.2631579,5.04473684 13.7960526,5.68421053 14.4473684,5.68421053 Z" id="Path" fill="#B0B7BD"></path>
                        <polygon id="Path" fill="#CAD1D8" points="18 8.52631579 14.2105263 4.73684211 18 4.73684211"></polygon>
                        <path d="M15.1578947,16.4210526 C15.1578947,16.7684211 14.8736842,17.0526316 14.5263158,17.0526316 L0.631578947,17.0526316 C0.284210526,17.0526316 0,16.7684211 0,16.4210526 L0,10.1052632 C0,9.75789474 0.284210526,9.47368421 0.631578947,9.47368421 L14.5263158,9.47368421 C14.8736842,9.47368421 15.1578947,9.75789474 15.1578947,10.1052632 L15.1578947,16.4210526 Z" id="Path" fill="#F15642"></path>
                        <g id="Group" transform="translate(2.842105, 12.315789)" fill="#FFFFFF">
                            <path d="M0.0250610537,0.311391826 C0.0250610537,0.167672522 0.137162111,0.0108878261 0.317709488,0.0108878261 L1.31314532,0.0108878261 C1.87365061,0.0108878261 2.37810537,0.389784174 2.37810537,1.11600218 C2.37810537,1.80411278 1.87365061,2.18736426 1.31314532,2.18736426 L0.593650552,2.18736426 L0.593650552,2.76224148 C0.593650552,2.95386722 0.472926336,3.06220109 0.317709488,3.06220109 C0.175427376,3.06220109 0.0250610537,2.95386722 0.0250610537,2.76224148 L0.0250610537,0.311391826 Z M0.593650552,0.55908987 L0.593650552,1.64351735 L1.31314532,1.64351735 C1.60202112,1.64351735 1.83053482,1.38602026 1.83053482,1.11600218 C1.83053482,0.811687436 1.60202112,0.55908987 1.31314532,0.55908987 L0.593650552,0.55908987 Z" id="Shape" fill-rule="nonzero"></path>
                            <path d="M3.22209698,3.06220109 C3.07981487,3.06220109 2.92459802,2.98380874 2.92459802,2.79272739 L2.92459802,0.320102087 C2.92459802,0.163861783 3.07981487,0.0500840001 3.22209698,0.0500840001 L4.20890966,0.0500840001 C6.17822343,0.0500840001 6.13510764,3.06220109 4.24771387,3.06220109 L3.22209698,3.06220109 Z M3.49372647,0.581409914 L3.49372647,2.53141957 L4.20890966,2.53141957 C5.37249708,2.53141957 5.42423603,0.581409914 4.20890966,0.581409914 L3.49372647,0.581409914 Z" id="Shape" fill-rule="nonzero"></path>
                            <path d="M6.83358346,0.616250957 L6.83358346,1.30817231 L7.93249719,1.30817231 C8.08771404,1.30817231 8.24293089,1.464957 8.24293089,1.61684218 C8.24293089,1.76056148 8.08771404,1.87815 7.93249719,1.87815 L6.83358346,1.87815 L6.83358346,2.792183 C6.83358346,2.94461257 6.72633293,3.0616567 6.57542766,3.0616567 C6.38571817,3.0616567 6.26984448,2.94461257 6.26984448,2.792183 L6.26984448,0.319557696 C6.26984448,0.163317392 6.38625712,0.0495396088 6.57542766,0.0495396088 L8.08825299,0.0495396088 C8.27796247,0.0495396088 8.39006352,0.163317392 8.39006352,0.319557696 C8.39006352,0.45892187 8.27796247,0.615706566 8.08825299,0.615706566 L6.83358346,0.615706566 L6.83358346,0.616250957 Z" id="Path"></path>
                        </g>
                        <path d="M15.4421053,17.0526316 L2.84210526,17.0526316 L2.84210526,18 L15.4421053,18 C15.8068421,18 16.1052632,17.5736842 16.1052632,17.0526316 L16.1052632,16.1052632 C16.1052632,16.6263158 15.8068421,17.0526316 15.4421053,17.0526316 Z" id="Path" fill="#CAD1D8"></path>
                    </g>
                </g>
            </g>
        </g>
    </g>
</svg>