<?xml version="1.0" encoding="UTF-8"?>
<svg width="18px" height="21px" viewBox="0 0 18 21" version="1.1" xmlns="http://www.w3.org/2000/svg" xmlns:xlink="http://www.w3.org/1999/xlink">
    <!-- Generator: Sketch 52.6 (67491) - http://www.bohemiancoding.com/sketch -->
    <title>pdf-2</title>
    <desc>Created with Sketch.</desc>
    <g id="Desktop" stroke="none" stroke-width="1" fill="none" fill-rule="evenodd">
        <g id="application-process-pre-application" transform="translate(-877.000000, -1688.000000)">
            <g id="form" transform="translate(0.000000, 1210.000000)">
                <g id="input" transform="translate(585.000000, 429.000000)">
                    <g id="attached-file" transform="translate(292.000000, 49.000000)">
                        <g id="pdf-2">
                            <path d="M4.10526316,0 C3.41052632,0 2.84210526,0.586184211 2.84210526,1.30263158 L2.84210526,19.5394737 C2.84210526,20.2559211 3.41052632,20.8421053 4.10526316,20.8421053 L16.7368421,20.8421053 C17.4315789,20.8421053 18,20.2559211 18,19.5394737 L18,5.21052632 L12.9473684,0 L4.10526316,0 Z" id="Path" fill="#E2E5E7"></path>
                            <path d="M14.4473684,5.68421053 L18,5.68421053 L13.2631579,0 L13.2631579,4.26315789 C13.2631579,5.04473684 13.7960526,5.68421053 14.4473684,5.68421053 Z" id="Path" fill="#B0B7BD"></path>
                            <polygon id="Path" fill="#CAD1D8" points="18 8.52631579 14.2105263 4.73684211 18 4.73684211"></polygon>
                            <path d="M15.1578947,16.4210526 C15.1578947,16.7684211 14.8736842,17.0526316 14.5263158,17.0526316 L0.631578947,17.0526316 C0.284210526,17.0526316 0,16.7684211 0,16.4210526 L0,10.1052632 C0,9.75789474 0.284210526,9.47368421 0.631578947,9.47368421 L14.5263158,9.47368421 C14.8736842,9.47368421 15.1578947,9.75789474 15.1578947,10.1052632 L15.1578947,16.4210526 Z" id="Path" fill="#0855FF"></path>
                            <path d="M2.44335938,12.2714844 C2.72721496,12.2714844 2.9798166,12.3294265 3.20117188,12.4453125 C3.42252715,12.5611985 3.59440043,12.7239573 3.71679688,12.9335938 C3.83919332,13.1432302 3.90039062,13.3789049 3.90039062,13.640625 C3.90039062,13.9075534 3.8388678,14.1442047 3.71582031,14.3505859 C3.59277282,14.5569672 3.41796988,14.7167963 3.19140625,14.8300781 C2.96484262,14.9433599 2.70507959,15 2.41210938,15 L1.70078125,15 C1.47986735,15 1.30078125,14.8209139 1.30078125,14.6 L1.30078125,12.6714844 C1.30078125,12.4505705 1.47986735,12.2714844 1.70078125,12.2714844 L2.44335938,12.2714844 Z M2.38867188,14.5878906 C2.68034,14.5878906 2.91438714,14.5003264 3.09082031,14.3251953 C3.26725349,14.1500642 3.35546875,13.9205743 3.35546875,13.6367188 C3.35546875,13.3424464 3.26660245,13.1100269 3.08886719,12.9394531 C2.91113192,12.7688794 2.6718765,12.6835938 2.37109375,12.6835938 L1.828125,12.6835938 L1.828125,14.5878906 L2.38867188,14.5878906 Z M5.79101562,12.2363281 C6.07356912,12.2363281 6.32779835,12.2945958 6.55371094,12.4111328 C6.77962353,12.5276699 6.95963475,12.6956369 7.09375,12.9150391 C7.22786525,13.1344412 7.29492188,13.3749987 7.29492188,13.6367188 C7.29492188,13.8919284 7.22949284,14.1285796 7.09863281,14.3466797 C6.96777278,14.5647797 6.78808708,14.7340489 6.55957031,14.8544922 C6.33105354,14.9749355 6.07356914,15.0351563 5.78710938,15.0351563 C5.50455588,15.0351563 5.24772251,14.9739589 5.01660156,14.8515625 C4.78548062,14.7291661 4.60546939,14.5608735 4.4765625,14.3466797 C4.34765561,14.1324859 4.28320312,13.8958346 4.28320312,13.6367188 C4.28320312,13.3867175 4.34765561,13.1516938 4.4765625,12.9316406 C4.60546939,12.7115874 4.78320199,12.5406907 5.00976562,12.4189453 C5.23632926,12.2971999 5.49674332,12.2363281 5.79101562,12.2363281 Z M4.828125,13.6367188 C4.828125,13.8177092 4.86914021,13.980468 4.95117188,14.125 C5.03320354,14.269532 5.14746021,14.38151 5.29394531,14.4609375 C5.44043042,14.540365 5.60611887,14.5800781 5.79101562,14.5800781 C6.07096494,14.5800781 6.30110587,14.4921884 6.48144531,14.3164063 C6.66178476,14.1406241 6.75195312,13.9140639 6.75195312,13.6367188 C6.75195312,13.4557283 6.71126343,13.292644 6.62988281,13.1474609 C6.5485022,13.0022779 6.43392001,12.8899744 6.28613281,12.8105469 C6.13834562,12.7311194 5.97200613,12.6914063 5.78710938,12.6914063 C5.60221262,12.6914063 5.43587313,12.7314449 5.28808594,12.8115234 C5.14029874,12.891602 5.02669311,13.00358 4.94726562,13.1474609 C4.86783814,13.2913419 4.828125,13.4544262 4.828125,13.6367188 Z M9.22070313,12.2363281 C9.37565182,12.2363281 9.50852966,12.2488618 9.67578125,12.2890625 C9.72884714,12.3018174 9.78218376,12.3211792 9.83579112,12.3471477 L9.83578652,12.3471572 C9.94382488,12.3994933 10.0060736,12.5152592 9.99015808,12.6342468 L9.99015808,12.6342468 C9.9774806,12.7290261 9.8903697,12.7955827 9.79559043,12.7829053 C9.78970998,12.7821187 9.78387385,12.7810304 9.77810513,12.7796447 C9.74917641,12.7726791 9.71995,12.7647559 9.69042969,12.7558594 C9.54785085,12.7128904 9.39908932,12.6914063 9.24414063,12.6914063 C9.05012924,12.6914063 8.87500078,12.7314449 8.71875,12.8115234 C8.56249922,12.891602 8.44108116,13.0045566 8.35449219,13.1503906 C8.26790321,13.2962247 8.22460938,13.4583324 8.22460938,13.6367188 C8.22460938,13.8190113 8.2675777,13.9824212 8.35351563,14.1269531 C8.43945355,14.2714851 8.56054609,14.3831376 8.71679688,14.4619141 C8.87304766,14.5406905 9.04882715,14.5800781 9.24414063,14.5800781 C9.39388096,14.5800781 9.53678317,14.558594 9.67285156,14.515625 C9.70902045,14.5042032 9.74632643,14.4895212 9.78476952,14.4715789 L9.78475881,14.471556 C9.87914051,14.4275058 9.99136173,14.4683075 10.0354119,14.5626892 C10.0378608,14.5679361 10.0400667,14.5732931 10.0420227,14.578743 L10.0420227,14.578743 C10.086491,14.7026447 10.0292229,14.8400198 9.90991363,14.8956468 C9.82631099,14.9346279 9.75607912,14.9615992 9.69921875,14.9765625 C9.55078051,15.0156252 9.37760516,15.0351563 9.1796875,15.0351563 C8.89192564,15.0351563 8.63476676,14.9778652 8.40820313,14.8632813 C8.18163949,14.7486973 8.00358138,14.5836599 7.87402344,14.3681641 C7.7444655,14.1526682 7.6796875,13.9166679 7.6796875,13.6601563 C7.6796875,13.3854153 7.7464186,13.138673 7.87988281,12.9199219 C8.01334702,12.7011708 8.19693894,12.5325527 8.43066406,12.4140625 C8.66438919,12.2955723 8.92773291,12.2363281 9.22070313,12.2363281 Z M11.1048965,12.3194479 L11.9121094,13.1953125 L12.7064793,12.313825 C12.7986816,12.211511 12.9526815,12.19396 13.0655413,12.2729034 C13.1637647,12.341609 13.1876936,12.4769316 13.1189881,12.575155 C13.1146248,12.5813929 13.1099363,12.587397 13.1049421,12.5931422 L12.2402344,13.5878906 L13.1121253,14.5515311 C13.2089691,14.6585658 13.2007077,14.823842 13.093673,14.9206858 C13.0900993,14.9239193 13.0864368,14.9270533 13.0826898,14.9300842 C12.9632244,15.0267186 12.7884926,15.0104517 12.6889183,14.8934254 L11.9121094,13.9804688 L10.9787741,14.9228801 C10.8833633,15.0192186 10.7279199,15.0199708 10.6315814,14.9245601 C10.629458,14.9224571 10.6273732,14.9203156 10.6253281,14.9181366 C10.5279712,14.8144074 10.5298433,14.6523261 10.6295702,14.5508734 L11.5761719,13.5878906 L10.7050501,12.6241062 C10.619912,12.5299117 10.6272536,12.384534 10.721448,12.2993959 C10.7262397,12.2950649 10.7312118,12.2909378 10.736351,12.2870255 C10.849169,12.2011415 11.0088064,12.2151855 11.1048965,12.3194479 Z" id="Docx" fill="#FFFFFF"></path>
                            <path d="M15.4421053,17.0526316 L2.84210526,17.0526316 L2.84210526,18 L15.4421053,18 C15.8068421,18 16.1052632,17.5736842 16.1052632,17.0526316 L16.1052632,16.1052632 C16.1052632,16.6263158 15.8068421,17.0526316 15.4421053,17.0526316 Z" id="Path" fill="#CAD1D8"></path>
                        </g>
                    </g>
                </g>
            </g>
        </g>
    </g>
</svg>