<?xml version="1.0" encoding="UTF-8"?>
<svg width="145px" height="16px" viewBox="0 0 145 16" version="1.1" xmlns="http://www.w3.org/2000/svg" xmlns:xlink="http://www.w3.org/1999/xlink">
    <!-- Generator: Sketch 52.1 (67048) - http://www.bohemiancoding.com/sketch -->
    <title>logo</title>
    <desc>Created with Sketch.</desc>
    <g id="Mobile" stroke="none" stroke-width="1" fill="none" fill-rule="evenodd">
        <g id="Mobile-menu-opened" transform="translate(-20.000000, -20.000000)" fill="#FFFFFF">
            <g id="logo" transform="translate(20.000000, 20.000000)">
                <path d="M3.24201913,6.96286107 L6.52533788,6.96286107 C7.10353527,6.96286107 7.57847601,6.82531087 7.95017431,6.55020633 C8.32187261,6.27510179 8.507719,5.82806359 8.507719,5.2090784 C8.507719,4.86519773 8.4457702,4.58321981 8.32187077,4.36313618 C8.19797133,4.14305254 8.03277453,3.97111479 7.82627549,3.84731774 C7.61977639,3.7235207 7.38230605,3.63755183 7.11385727,3.58940853 C6.84540849,3.54126524 6.56663893,3.51719395 6.27754023,3.51719395 L3.24201913,3.51719395 L3.24201913,6.96286107 Z M0,1 L6.93833394,1 C7.64043077,1 8.28056826,1.06189759 8.85876566,1.18569464 C9.43696305,1.30949168 9.93255337,1.51237824 10.3455515,1.79436039 C10.7585496,2.07634254 11.0786183,2.45116685 11.3057674,2.91884457 C11.5329163,3.38652228 11.6464891,3.96423315 11.6464891,4.6519945 C11.6464891,5.39477675 11.4778507,6.0137527 11.1405689,6.50894085 C10.8032871,7.004129 10.3042552,7.40990212 9.64345818,7.72627235 C10.5520541,7.98762166 11.2300492,8.44497611 11.6774638,9.09834938 C12.1248785,9.75172265 12.3485824,10.5391976 12.3485824,11.4607978 C12.3485824,12.2035801 12.2040353,12.8466273 11.9149366,13.3899587 C11.6258379,13.9332902 11.2369371,14.3768896 10.7482227,14.7207703 C10.2595082,15.0646509 9.70196907,15.3191188 9.07558859,15.4841816 C8.44920806,15.6492443 7.80562898,15.7317744 7.14483198,15.7317744 L0,15.7317744 L0,1 Z M3.24201913,13.2145805 L6.71118611,13.2145805 C7.02781802,13.2145805 7.33067876,13.1836317 7.61977745,13.1217331 C7.90887615,13.0598346 8.16355447,12.956672 8.38382018,12.8122421 C8.60408583,12.6678122 8.77960743,12.4718032 8.91039017,12.2242091 C9.0411729,11.976615 9.1065633,11.6602495 9.1065633,11.2751032 C9.1065633,10.5185657 8.89318414,9.97868114 8.46641939,9.65543329 C8.03965465,9.33218543 7.47523235,9.17056396 6.77313552,9.17056396 L3.24201913,9.17056396 L3.24201913,13.2145805 Z M21.5254667,9.25309491 C21.3878006,8.51031263 21.143447,7.9463568 20.7923986,7.56121045 C20.4413502,7.17606411 19.9079023,6.98349381 19.1920389,6.98349381 C18.7239743,6.98349381 18.3350736,7.06258517 18.025325,7.22077029 C17.7155764,7.37895541 17.4677813,7.57496446 17.2819321,7.8088033 C17.0960829,8.04264214 16.9653021,8.29023254 16.8895858,8.55158184 C16.8138695,8.81293115 16.7691287,9.04676653 16.7553621,9.25309491 L21.5254667,9.25309491 Z M16.7553621,11.1100413 C16.7966619,12.0591519 17.0375739,12.746903 17.4781052,13.173315 C17.9186366,13.599727 18.5518909,13.8129298 19.3778871,13.8129298 C19.9698511,13.8129298 20.4792078,13.6650634 20.9059726,13.369326 C21.3327373,13.0735886 21.5942989,12.7606619 21.6906651,12.4305365 L24.2718905,12.4305365 C23.8588924,13.7097726 23.2256381,14.6244814 22.3721086,15.1746905 C21.5185791,15.7248996 20.4860993,16 19.2746381,16 C18.4348752,16 17.6777233,15.8658885 17.0031597,15.5976616 C16.3285961,15.3294347 15.7572906,14.9477329 15.289226,14.4525447 C14.8211615,13.9573566 14.4597935,13.3658906 14.2051114,12.6781293 C13.9504292,11.990368 13.82309,11.2338418 13.82309,10.4085282 C13.82309,9.61072505 13.9538708,8.86795392 14.2154363,8.18019257 C14.4770018,7.49243122 14.8486945,6.89752656 15.3305257,6.3954608 C15.8123568,5.89339503 16.3871039,5.49793817 17.0547842,5.2090784 C17.7224645,4.92021864 18.4624084,4.77579092 19.2746381,4.77579092 C20.183234,4.77579092 20.9748019,4.95116744 21.6493655,5.30192572 C22.3239291,5.65268401 22.8780266,6.12379345 23.3116747,6.71526823 C23.7453227,7.306743 24.0585082,7.98073897 24.2512407,8.73727648 C24.4439731,9.49381399 24.5128051,10.2847276 24.4577387,11.1100413 L16.7553621,11.1100413 Z M30.0209074,5.06464924 L30.0209074,1.86657497 L27.0886353,1.86657497 L27.0886353,5.06464924 L25.3127522,5.06464924 L25.3127522,7.02475928 L27.0886353,7.02475928 L27.0886353,13.3177442 C27.0886353,13.854198 27.1781169,14.2874811 27.3570828,14.6176066 C27.5360486,14.9477321 27.7804022,15.2021999 28.0901508,15.3810179 C28.3998994,15.5598358 28.7578257,15.6801922 29.1639406,15.7420908 C29.5700554,15.8039893 30.0002553,15.8349381 30.4545533,15.8349381 C30.743652,15.8349381 31.0396295,15.8280606 31.3424948,15.8143054 C31.6453601,15.8005501 31.9206881,15.7730401 32.1684869,15.7317744 L32.1684869,13.4621733 C32.0308209,13.4896838 31.8862737,13.5103163 31.7348411,13.5240715 C31.5834084,13.5378268 31.4250949,13.5447043 31.2598956,13.5447043 C30.7642978,13.5447043 30.4339043,13.4621742 30.268705,13.2971114 C30.1035058,13.1320487 30.0209074,12.8019282 30.0209074,12.30674 L30.0209074,7.02475928 L32.1684869,7.02475928 L32.1684869,5.06464924 L30.0209074,5.06464924 Z M37.4012587,5.06464924 L37.4012587,1.86657497 L34.4689867,1.86657497 L34.4689867,5.06464924 L32.6931036,5.06464924 L32.6931036,7.02475928 L34.4689867,7.02475928 L34.4689867,13.3177442 C34.4689867,13.854198 34.5584682,14.2874811 34.7374341,14.6176066 C34.9164,14.9477321 35.1607535,15.2021999 35.4705021,15.3810179 C35.7802507,15.5598358 36.1381771,15.6801922 36.5442919,15.7420908 C36.9504067,15.8039893 37.3806067,15.8349381 37.8349046,15.8349381 C38.1240033,15.8349381 38.4199809,15.8280606 38.7228462,15.8143054 C39.0257115,15.8005501 39.3010394,15.7730401 39.5488383,15.7317744 L39.5488383,13.4621733 C39.4111722,13.4896838 39.2666251,13.5103163 39.1151924,13.5240715 C38.9637598,13.5378268 38.8054462,13.5447043 38.6402469,13.5447043 C38.1446492,13.5447043 37.8142556,13.4621742 37.6490564,13.2971114 C37.4838571,13.1320487 37.4012587,12.8019282 37.4012587,12.30674 L37.4012587,7.02475928 L39.5488383,7.02475928 L39.5488383,5.06464924 L37.4012587,5.06464924 Z M48.2507771,9.25309491 C48.113111,8.51031263 47.8687574,7.9463568 47.517709,7.56121045 C47.1666606,7.17606411 46.6332127,6.98349381 45.9173493,6.98349381 C45.4492847,6.98349381 45.060384,7.06258517 44.7506354,7.22077029 C44.4408868,7.37895541 44.1930916,7.57496446 44.0072425,7.8088033 C43.8213933,8.04264214 43.6906125,8.29023254 43.6148962,8.55158184 C43.5391799,8.81293115 43.4944391,9.04676653 43.4806725,9.25309491 L48.2507771,9.25309491 Z M43.4806725,11.1100413 C43.5219723,12.0591519 43.7628842,12.746903 44.2034156,13.173315 C44.6439469,13.599727 45.2772012,13.8129298 46.1031975,13.8129298 C46.6951615,13.8129298 47.2045182,13.6650634 47.631283,13.369326 C48.0580477,13.0735886 48.3196093,12.7606619 48.4159755,12.4305365 L50.9972009,12.4305365 C50.5842028,13.7097726 49.9509485,14.6244814 49.097419,15.1746905 C48.2438895,15.7248996 47.2114097,16 45.9999485,16 C45.1601856,16 44.4030337,15.8658885 43.7284701,15.5976616 C43.0539065,15.3294347 42.482601,14.9477329 42.0145364,14.4525447 C41.5464719,13.9573566 41.1851039,13.3658906 40.9304218,12.6781293 C40.6757396,11.990368 40.5484004,11.2338418 40.5484004,10.4085282 C40.5484004,9.61072505 40.6791812,8.86795392 40.9407467,8.18019257 C41.2023121,7.49243122 41.5740049,6.89752656 42.055836,6.3954608 C42.5376672,5.89339503 43.1124143,5.49793817 43.7800946,5.2090784 C44.4477749,4.92021864 45.1877188,4.77579092 45.9999485,4.77579092 C46.9085444,4.77579092 47.7001123,4.95116744 48.3746759,5.30192572 C49.0492395,5.65268401 49.603337,6.12379345 50.036985,6.71526823 C50.4706331,7.306743 50.7838186,7.98073897 50.9765511,8.73727648 C51.1692836,9.49381399 51.2381156,10.2847276 51.1830491,11.1100413 L43.4806725,11.1100413 Z M53.0292532,5.06464924 L53.0292532,15.7317744 L55.9615253,15.7317744 L55.9615253,10.9243466 C55.9615253,10.4429137 56.0097074,9.99587552 56.1060739,9.58321871 C56.2024404,9.1705619 56.3641953,8.80949262 56.5913443,8.5 C56.8184932,8.19050738 57.1179126,7.94635579 57.4896107,7.76753783 C57.8613088,7.58871986 58.3156001,7.49931224 58.8524977,7.49931224 C59.0314634,7.49931224 59.21731,7.5096285 59.4100424,7.53026135 C59.6027748,7.5508942 59.7679716,7.57496546 59.9056377,7.60247593 L59.9056377,4.87895461 C59.6716057,4.81017847 59.4582262,4.77579092 59.2654938,4.77579092 C58.8937957,4.77579092 58.5358693,4.830811 58.191704,4.94085282 C57.8475388,5.05089464 57.5240283,5.20563862 57.2211633,5.40508941 C56.9182982,5.6045402 56.649853,5.84525306 56.4158209,6.12723521 C56.1817889,6.40921737 55.9959423,6.71526655 55.8582762,7.04539202 L55.8169766,7.04539202 L55.8169766,5.06464924 L53.0292532,5.06464924 Z M64.7460632,3.72352132 L60.3270053,3.72352132 L60.3270053,1 L72.4071403,1 L72.4071403,3.72352132 L67.9880824,3.72352132 L67.9880824,15.7317744 L64.7460632,15.7317744 L64.7460632,3.72352132 Z M74.2120447,10.4085282 C74.2120447,10.8349402 74.2533438,11.2510296 74.3359435,11.6568088 C74.4185433,12.062588 74.559649,12.427096 74.7592645,12.7503439 C74.95888,13.0735917 75.2238834,13.3314983 75.5542819,13.5240715 C75.8846805,13.7166447 76.2976726,13.8129298 76.7932701,13.8129298 C77.2888677,13.8129298 77.7053016,13.7166447 78.0425832,13.5240715 C78.3798649,13.3314983 78.6483101,13.0735917 78.8479256,12.7503439 C79.0475411,12.427096 79.1886468,12.062588 79.2712465,11.6568088 C79.3538463,11.2510296 79.3951454,10.8349402 79.3951454,10.4085282 C79.3951454,9.98211616 79.3538463,9.56258803 79.2712465,9.14993122 C79.1886468,8.73727442 79.0475411,8.37276639 78.8479256,8.05639615 C78.6483101,7.74002591 78.3798649,7.48211932 78.0425832,7.2826685 C77.7053016,7.08321768 77.2888677,6.98349381 76.7932701,6.98349381 C76.2976726,6.98349381 75.8846805,7.08321768 75.5542819,7.2826685 C75.2238834,7.48211932 74.95888,7.74002591 74.7592645,8.05639615 C74.559649,8.37276639 74.4185433,8.73727442 74.3359435,9.14993122 C74.2533438,9.56258803 74.2120447,9.98211616 74.2120447,10.4085282 Z M71.2797726,10.4085282 C71.2797726,9.55570412 71.4105534,8.78198422 71.6721189,8.08734525 C71.9336844,7.39270629 72.3053769,6.80124038 72.7872083,6.31292985 C73.2690396,5.82461932 73.847228,5.44635622 74.5217918,5.1781293 C75.1963555,4.90990238 75.9535074,4.77579092 76.7932701,4.77579092 C77.6330329,4.77579092 78.3936266,4.90990238 79.0750734,5.1781293 C79.7565203,5.44635622 80.3381505,5.82461932 80.8199818,6.31292985 C81.3018132,6.80124038 81.6735057,7.39270629 81.9350712,8.08734525 C82.1966367,8.78198422 82.3274174,9.55570412 82.3274174,10.4085282 C82.3274174,11.2613523 82.1966367,12.0316334 81.9350712,12.7193948 C81.6735057,13.4071561 81.3018132,13.9951833 80.8199818,14.4834938 C80.3381505,14.9718043 79.7565203,15.3466287 79.0750734,15.607978 C78.3936266,15.8693273 77.6330329,16 76.7932701,16 C75.9535074,16 75.1963555,15.8693273 74.5217918,15.607978 C73.847228,15.3466287 73.2690396,14.9718043 72.7872083,14.4834938 C72.3053769,13.9951833 71.9336844,13.4071561 71.6721189,12.7193948 C71.4105534,12.0316334 71.2797726,11.2613523 71.2797726,10.4085282 Z M84.6072674,1 L84.6072674,15.7317744 L87.5395394,15.7317744 L87.5395394,12.0591472 L88.6752786,10.9656121 L91.6075507,15.7317744 L95.1593169,15.7317744 L90.6783096,8.98486933 L94.7050212,5.06464924 L91.2358542,5.06464924 L87.5395394,8.90233838 L87.5395394,1 L84.6072674,1 Z M103.489559,9.25309491 C103.351893,8.51031263 103.107539,7.9463568 102.756491,7.56121045 C102.405443,7.17606411 101.871995,6.98349381 101.156131,6.98349381 C100.688067,6.98349381 100.299166,7.06258517 99.9894175,7.22077029 C99.6796688,7.37895541 99.4318739,7.57496446 99.2460246,7.8088033 C99.0601752,8.04264214 98.9293945,8.29023254 98.8536783,8.55158184 C98.7779622,8.81293115 98.7332213,9.04676653 98.7194546,9.25309491 L103.489559,9.25309491 Z M98.7194546,11.1100413 C98.7607542,12.0591519 99.0016665,12.746903 99.4421977,13.173315 C99.8827289,13.599727 100.515984,13.8129298 101.34198,13.8129298 C101.933944,13.8129298 102.443301,13.6650634 102.870065,13.369326 C103.29683,13.0735886 103.558391,12.7606619 103.654758,12.4305365 L106.235983,12.4305365 C105.822985,13.7097726 105.189731,14.6244814 104.336201,15.1746905 C103.482672,15.7248996 102.450192,16 101.238731,16 C100.398968,16 99.641816,15.8658885 98.9672522,15.5976616 C98.2926885,15.3294347 97.7213832,14.9477329 97.2533186,14.4525447 C96.7852539,13.9573566 96.4238863,13.3658906 96.1692039,12.6781293 C95.9145215,11.990368 95.7871825,11.2338418 95.7871825,10.4085282 C95.7871825,9.61072505 95.9179633,8.86795392 96.1795288,8.18019257 C96.4410943,7.49243122 96.8127868,6.89752656 97.2946182,6.3954608 C97.7764495,5.89339503 98.3511966,5.49793817 99.0188768,5.2090784 C99.6865569,4.92021864 100.426501,4.77579092 101.238731,4.77579092 C102.147326,4.77579092 102.938894,4.95116744 103.613458,5.30192572 C104.288022,5.65268401 104.842119,6.12379345 105.275767,6.71526823 C105.709415,7.306743 106.022601,7.98073897 106.215333,8.73727648 C106.408066,9.49381399 106.476898,10.2847276 106.421831,11.1100413 L98.7194546,11.1100413 Z M108.268035,5.06464924 L108.268035,15.7317744 L111.200307,15.7317744 L111.200307,10.1403026 C111.200307,9.05363969 111.37927,8.27304229 111.737202,7.79848693 C112.095134,7.32393158 112.673323,7.0866575 113.471786,7.0866575 C114.173882,7.0866575 114.66259,7.30329906 114.937922,7.73658872 C115.213254,8.16987838 115.350918,8.82668058 115.350918,9.70701513 L115.350918,15.7317744 L118.28319,15.7317744 L118.28319,9.17056396 C118.28319,8.51031308 118.224683,7.90853091 118.107667,7.36519945 C117.99065,6.82186799 117.787596,6.36107478 117.498497,5.98280605 C117.209398,5.60453731 116.813615,5.30880437 116.311134,5.09559835 C115.808653,4.88239233 115.165074,4.77579092 114.380377,4.77579092 C113.76088,4.77579092 113.155158,4.91677988 112.563194,5.19876204 C111.97123,5.48074419 111.489406,5.93122109 111.117708,6.55020633 L111.055759,6.55020633 L111.055759,5.06464924 L108.268035,5.06464924 Z M122.896468,12.2654746 L120.108744,12.2654746 C120.136278,12.9807464 120.298033,13.575651 120.594015,14.0502063 C120.889997,14.5247617 121.268573,14.9064635 121.729754,15.1953232 C122.190935,15.484183 122.7175,15.6905083 123.309464,15.8143054 C123.901428,15.9381024 124.507149,16 125.126646,16 C125.732377,16 126.327773,15.9415412 126.912854,15.8246217 C127.497935,15.7077023 128.017617,15.5048158 128.471915,15.215956 C128.926212,14.9270962 129.294464,14.5453944 129.576679,14.0708391 C129.858894,13.5962837 130,13.0082566 130,12.30674 C130,11.8115519 129.903635,11.3954625 129.710903,11.0584594 C129.51817,10.7214563 129.263492,10.4394784 128.94686,10.2125172 C128.630228,9.98555597 128.26886,9.80330193 127.862745,9.66574966 C127.456631,9.52819739 127.040197,9.41127969 126.613432,9.31499312 C126.200434,9.21870655 125.794325,9.12929888 125.395094,9.04676754 C124.995862,8.9642362 124.641378,8.87138977 124.331629,8.76822558 C124.02188,8.6650614 123.770644,8.53094994 123.577911,8.36588721 C123.385179,8.20082447 123.288814,7.98762166 123.288814,7.72627235 C123.288814,7.50618874 123.34388,7.3308122 123.454012,7.20013755 C123.564145,7.0694629 123.698368,6.96973902 123.856683,6.90096286 C124.014999,6.83218675 124.190521,6.78748292 124.383253,6.76685007 C124.575986,6.74621722 124.754949,6.73590096 124.920148,6.73590096 C125.443279,6.73590096 125.897571,6.83562484 126.283035,7.03507565 C126.6685,7.23452647 126.88188,7.61622826 126.923179,8.18019257 L129.710903,8.18019257 C129.655836,7.51994169 129.487198,6.97317962 129.204983,6.53988996 C128.922767,6.1066003 128.568283,5.75928603 128.141518,5.49793673 C127.714753,5.23658741 127.229487,5.05089464 126.685707,4.94085282 C126.141926,4.830811 125.580945,4.77579092 125.002748,4.77579092 C124.42455,4.77579092 123.860128,4.82737225 123.309464,4.93053645 C122.758799,5.03370065 122.263209,5.21251592 121.822678,5.46698762 C121.382147,5.72145931 121.027662,6.06877358 120.759213,6.50894085 C120.490764,6.94910813 120.356542,7.51306396 120.356542,8.20082531 C120.356542,8.66850305 120.452907,9.06395985 120.645639,9.3872077 C120.838371,9.71045556 121.09305,9.97867846 121.409682,10.1918845 C121.726314,10.4050904 122.087682,10.5770282 122.493796,10.7077029 C122.899911,10.8383775 123.316345,10.9518565 123.74311,11.0481431 C124.789371,11.2682267 125.60503,11.488307 126.190111,11.7083906 C126.775192,11.9284743 127.067728,12.2585948 127.067728,12.698762 C127.067728,12.9601113 127.005779,13.1767529 126.88188,13.3486933 C126.75798,13.5206336 126.603108,13.6581838 126.417259,13.761348 C126.23141,13.8645122 126.024914,13.9401648 125.797765,13.9883081 C125.570616,14.0364514 125.353795,14.0605227 125.147296,14.0605227 C124.858197,14.0605227 124.579428,14.0261352 124.310979,13.957359 C124.042531,13.8885829 123.80506,13.7819815 123.598561,13.6375516 C123.392062,13.4931217 123.223424,13.3074289 123.092641,13.0804677 C122.961858,12.8535065 122.896468,12.5818448 122.896468,12.2654746 Z" id="Shape" fill-rule="nonzero"></path>
                <circle id="Oval" cx="140.5" cy="4.5" r="4.5"></circle>
            </g>
        </g>
    </g>
</svg>