<?xml version="1.0" encoding="UTF-8"?>
<svg width="17px" height="15px" viewBox="0 0 17 15" version="1.1" xmlns="http://www.w3.org/2000/svg" xmlns:xlink="http://www.w3.org/1999/xlink">
    <!-- Generator: Sketch 52.1 (67048) - http://www.bohemiancoding.com/sketch -->
    <title>clip</title>
    <desc>Created with Sketch.</desc>
    <g id="Mobile" stroke="none" stroke-width="1" fill="none" fill-rule="evenodd">
        <g id="Mobile-application-process" transform="translate(-20.000000, -3587.000000)" fill="#2C2C2C">
            <g id="form-mobile" transform="translate(20.000000, 3240.000000)">
                <g id="attach" transform="translate(0.000000, 345.000000)">
                    <g id="clip" transform="translate(0.000000, 2.000000)">
                        <path d="M15.7139125,1.24962839 C13.9991293,-0.416542798 11.2184101,-0.416542798 9.50367521,1.24962839 L0.964955936,9.54623797 C-0.321651979,10.7963721 -0.321651979,12.8219891 0.964955936,14.0721703 C2.02542103,15.1025724 3.62493005,15.268959 4.87532413,14.6001667 C5.00594569,14.593769 5.13438862,14.5457865 5.23431557,14.4497743 L13.7729864,6.15316471 C14.6303539,5.32010263 14.6303539,3.96967556 13.7729864,3.13661349 C12.915619,2.30355141 11.525792,2.30355141 10.6684245,3.13661349 L3.68201041,9.92492393 C3.46792273,10.1329425 3.46792273,10.4710785 3.68201041,10.67905 C3.8960981,10.8870685 4.24409952,10.8870685 4.45813879,10.67905 L11.4445529,3.89073953 C11.8737934,3.47366751 12.5686827,3.47366751 12.9968581,3.89073953 C13.4260985,4.30781155 13.4260985,4.98300156 12.9968581,5.39903866 L4.84569462,13.3190792 C3.98832719,14.1521412 2.59850016,14.1521412 1.74113272,13.3190792 C0.883765288,12.4860171 0.883765288,11.13559 1.74113272,10.3025279 L10.2798036,2.00375444 C11.5664115,0.753620346 13.6511278,0.753620346 14.9377842,2.00375444 C16.2243921,3.25388853 16.2243921,5.27950562 14.9377842,6.52968675 L7.17524168,14.0721703 C6.961154,14.2801888 6.961154,14.6183248 7.17524168,14.8262963 C7.38932936,15.0343149 7.73733078,15.0343149 7.95137005,14.8262963 L15.7139125,7.28381279 C17.4286958,5.61768864 17.4286958,2.91579959 15.7139125,1.24962839 Z" id="Path"></path>
                    </g>
                </g>
            </g>
        </g>
    </g>
</svg>