<?xml version="1.0" encoding="UTF-8"?>
<svg width="165px" height="18px" viewBox="0 0 165 18" version="1.1" xmlns="http://www.w3.org/2000/svg" xmlns:xlink="http://www.w3.org/1999/xlink">
    <!-- Generator: Sketch 52.1 (67048) - http://www.bohemiancoding.com/sketch -->
    <title>logo</title>
    <desc>Created with Sketch.</desc>
    <g id="desktop" stroke="none" stroke-width="1" fill="none" fill-rule="evenodd">
        <g id="better-tockens-main-page" transform="translate(-150.000000, -36.000000)">
            <g id="header" transform="translate(150.000000, 36.000000)">
                <g id="logo">
                    <path d="M4.19380308,7.61896552 L7.94166023,7.61896552 C8.60166354,7.61896552 9.14380099,7.4658636 9.5680888,7.15965517 C9.99237662,6.85344674 10.2045174,6.35586548 10.2045174,5.66689655 C10.2045174,5.28413602 10.1338038,4.97027709 9.99237452,4.72531034 C9.85094525,4.4803436 9.66237566,4.28896621 9.42666023,4.15117241 C9.19094474,4.01337862 8.91987605,3.91768993 8.61344595,3.86410345 C8.30701585,3.81051698 7.98880475,3.78372414 7.65880309,3.78372414 L4.19380308,3.78372414 L4.19380308,7.61896552 Z M0.493088793,0.981931034 L8.4130888,0.981931034 C9.21452139,0.981931034 9.94522835,1.0508269 10.6052317,1.18862069 C11.265235,1.32641448 11.8309436,1.55223981 12.3023745,1.86610345 C12.7738054,2.17996709 13.1391589,2.59716981 13.3984459,3.11772414 C13.6577329,3.63827846 13.7873745,4.28130652 13.7873745,5.04682759 C13.7873745,5.87359034 13.5948764,6.56254899 13.2098745,7.11372414 C12.8248726,7.66489928 12.2552354,8.11654994 11.5009459,8.46868966 C12.538094,8.75958766 13.3120148,9.26865155 13.8227317,9.99589655 C14.3334485,10.7231416 14.5888031,11.5996501 14.5888031,12.6254483 C14.5888031,13.4522111 14.4238047,14.1679625 14.0938031,14.7727241 C13.7638014,15.3774858 13.3198773,15.8712394 12.7620174,16.254 C12.2041574,16.6367605 11.5677352,16.9199991 10.8527317,17.1037241 C10.1377281,17.2874492 9.40309256,17.3793103 8.64880309,17.3793103 L0.493088793,17.3793103 L0.493088793,0.981931034 Z M4.19380308,14.5775172 L8.15380309,14.5775172 C8.51523349,14.5775172 8.86094429,14.5430693 9.19094595,14.4741724 C9.5209476,14.4052755 9.81165894,14.2904491 10.0630888,14.1296897 C10.3145186,13.9689302 10.5148738,13.75076 10.6641602,13.4751724 C10.8134467,13.1995848 10.8880888,12.8474504 10.8880888,12.4187586 C10.8880888,11.5766855 10.6445198,10.9757604 10.1573745,10.6159655 C9.67022922,10.2561706 9.02594996,10.0762759 8.22451737,10.0762759 L4.19380308,10.0762759 L4.19380308,14.5775172 Z M25.0640734,10.1681379 C24.9069297,9.34137515 24.6280039,8.7136573 24.2272876,8.28496552 C23.8265713,7.85627373 23.2176489,7.64193103 22.4005019,7.64193103 C21.8662135,7.64193103 21.4222894,7.72996463 21.0687162,7.90603448 C20.715143,8.08210434 20.4322887,8.30027458 20.2201448,8.56055172 C20.0080008,8.82082887 19.8587166,9.09641234 19.7722876,9.38731034 C19.6858586,9.67820834 19.6347877,9.93848164 19.6190734,10.1681379 L25.0640734,10.1681379 Z M19.6190734,12.2350345 C19.6662165,13.2914536 19.9412137,14.0569631 20.4440734,14.5315862 C20.946933,15.0062093 21.6697829,15.2435172 22.6126448,15.2435172 C23.2883625,15.2435172 23.8697852,15.0789327 24.3569305,14.7497586 C24.8440758,14.4205846 25.1426443,14.0722777 25.2526448,13.7048276 L28.1990734,13.7048276 C27.7276424,15.1286968 27.0047925,16.1468245 26.0305019,16.7592414 C25.0562113,17.3716582 23.8776517,17.6778621 22.4947876,17.6778621 C21.5362114,17.6778621 20.6719343,17.5285877 19.9019305,17.2300345 C19.1319267,16.9314813 18.4797903,16.5066234 17.9455019,15.9554483 C17.4112135,15.4042731 16.9987177,14.7459349 16.7080019,13.9804138 C16.4172862,13.2148927 16.2719305,12.3728322 16.2719305,11.4542069 C16.2719305,10.5662025 16.4212147,9.7394521 16.7197876,8.97393103 C17.0183606,8.20840997 17.442642,7.54624415 17.9926448,6.98741379 C18.5426475,6.42858343 19.1987124,5.9884154 19.9608591,5.66689655 C20.7230057,5.3453777 21.5676402,5.18462069 22.4947876,5.18462069 C23.5319357,5.18462069 24.4354981,5.37982564 25.2055019,5.77024138 C25.9755058,6.16065712 26.6079994,6.68503117 27.1030019,7.34337931 C27.5980044,8.00172745 27.9555008,8.75192679 28.1755019,9.594 C28.395503,10.4360732 28.4740736,11.3164092 28.4112162,12.2350345 L19.6190734,12.2350345 Z M34.7614865,5.50613793 L34.7614865,1.94648276 L31.4143436,1.94648276 L31.4143436,5.50613793 L29.3872008,5.50613793 L29.3872008,7.68786207 L31.4143436,7.68786207 L31.4143436,14.6923448 C31.4143436,15.2894513 31.5164854,15.7717223 31.7207722,16.1391724 C31.925059,16.5066226 32.2039847,16.7898611 32.5575579,16.9888966 C32.9111311,17.187932 33.3196985,17.3218962 33.7832722,17.3907931 C34.2468459,17.45969 34.7379124,17.4941379 35.2564865,17.4941379 C35.5864881,17.4941379 35.9243419,17.4864828 36.2700579,17.4711724 C36.6157739,17.455862 36.9300565,17.4252416 37.2129151,17.3793103 L37.2129151,14.8531034 C37.0557714,14.8837243 36.8907731,14.9066896 36.7179151,14.922 C36.545057,14.9373104 36.3643446,14.9449655 36.1757722,14.9449655 C35.610055,14.9449655 35.232916,14.8531044 35.0443436,14.6693793 C34.8557712,14.4856542 34.7614865,14.1182096 34.7614865,13.5670345 L34.7614865,7.68786207 L37.2129151,7.68786207 L37.2129151,5.50613793 L34.7614865,5.50613793 Z M43.1860425,5.50613793 L43.1860425,1.94648276 L39.8388996,1.94648276 L39.8388996,5.50613793 L37.8117568,5.50613793 L37.8117568,7.68786207 L39.8388996,7.68786207 L39.8388996,14.6923448 C39.8388996,15.2894513 39.9410414,15.7717223 40.1453282,16.1391724 C40.3496149,16.5066226 40.6285407,16.7898611 40.9821139,16.9888966 C41.3356871,17.187932 41.7442544,17.3218962 42.2078282,17.3907931 C42.6714019,17.45969 43.1624684,17.4941379 43.6810425,17.4941379 C44.0110441,17.4941379 44.3488979,17.4864828 44.6946139,17.4711724 C45.0403299,17.455862 45.3546125,17.4252416 45.637471,17.3793103 L45.637471,14.8531034 C45.4803274,14.8837243 45.3153291,14.9066896 45.142471,14.922 C44.969613,14.9373104 44.7889006,14.9449655 44.6003282,14.9449655 C44.0346111,14.9449655 43.657472,14.8531044 43.4688996,14.6693793 C43.2803272,14.4856542 43.1860425,14.1182096 43.1860425,13.5670345 L43.1860425,7.68786207 L45.637471,7.68786207 L45.637471,5.50613793 L43.1860425,5.50613793 Z M55.5705985,10.1681379 C55.4134548,9.34137515 55.134529,8.7136573 54.7338127,8.28496552 C54.3330965,7.85627373 53.724174,7.64193103 52.907027,7.64193103 C52.3727386,7.64193103 51.9288145,7.72996463 51.5752413,7.90603448 C51.2216681,8.08210434 50.9388138,8.30027458 50.7266699,8.56055172 C50.5145259,8.82082887 50.3652417,9.09641234 50.2788127,9.38731034 C50.1923838,9.67820834 50.1413128,9.93848164 50.1255985,10.1681379 L55.5705985,10.1681379 Z M50.1255985,12.2350345 C50.1727416,13.2914536 50.4477388,14.0569631 50.9505985,14.5315862 C51.4534581,15.0062093 52.176308,15.2435172 53.1191699,15.2435172 C53.7948876,15.2435172 54.3763103,15.0789327 54.8634556,14.7497586 C55.3506009,14.4205846 55.6491694,14.0722777 55.7591699,13.7048276 L58.7055985,13.7048276 C58.2341675,15.1286968 57.5113176,16.1468245 56.537027,16.7592414 C55.5627364,17.3716582 54.3841768,17.6778621 53.0013127,17.6778621 C52.0427365,17.6778621 51.1784594,17.5285877 50.4084556,17.2300345 C49.6384518,16.9314813 48.9863154,16.5066234 48.452027,15.9554483 C47.9177386,15.4042731 47.5052428,14.7459349 47.214527,13.9804138 C46.9238113,13.2148927 46.7784556,12.3728322 46.7784556,11.4542069 C46.7784556,10.5662025 46.9277398,9.7394521 47.2263127,8.97393103 C47.5248857,8.20840997 47.9491671,7.54624415 48.4991699,6.98741379 C49.0491726,6.42858343 49.7052375,5.9884154 50.4673842,5.66689655 C51.2295308,5.3453777 52.0741653,5.18462069 53.0013127,5.18462069 C54.0384608,5.18462069 54.9420232,5.37982564 55.712027,5.77024138 C56.4820309,6.16065712 57.1145245,6.68503117 57.609527,7.34337931 C58.1045295,8.00172745 58.4620259,8.75192679 58.682027,9.594 C58.9020282,10.4360732 58.9805988,11.3164092 58.9177413,12.2350345 L50.1255985,12.2350345 Z M61.0251544,5.50613793 L61.0251544,17.3793103 L64.3722973,17.3793103 L64.3722973,12.0283448 C64.3722973,11.4924801 64.4272964,10.9948988 64.5372973,10.5355862 C64.6472981,10.0762736 64.8319389,9.67438105 65.0912259,9.32989655 C65.3505129,8.98541206 65.6922954,8.71365619 66.116583,8.51462069 C66.5408706,8.31558519 67.059437,8.21606897 67.6722973,8.21606897 C67.8765839,8.21606897 68.0887248,8.2275516 68.3087259,8.25051724 C68.5287269,8.27348288 68.7172964,8.3002757 68.8744402,8.33089655 L68.8744402,5.29944828 C68.6072962,5.22289617 68.3637269,5.18462069 68.1437259,5.18462069 C67.7194382,5.18462069 67.3108708,5.24586146 66.9180116,5.36834483 C66.5251523,5.4908282 66.1558702,5.66306786 65.8101544,5.88506897 C65.4644387,6.10707007 65.1580126,6.37499843 64.8908687,6.68886207 C64.6237248,7.00272571 64.4115839,7.34337745 64.2544402,7.71082759 L64.2072973,7.71082759 L64.2072973,5.50613793 L61.0251544,5.50613793 Z M74.3997104,4.01337931 L69.3554247,4.01337931 L69.3554247,0.981931034 L83.1447104,0.981931034 L83.1447104,4.01337931 L78.1004247,4.01337931 L78.1004247,17.3793103 L74.3997104,17.3793103 L74.3997104,4.01337931 Z M85.2049807,11.4542069 C85.2049807,11.92883 85.2521229,12.3919633 85.3464093,12.8436207 C85.4406956,13.2952781 85.6017656,13.7009982 85.8296236,14.0607931 C86.0574815,14.420588 86.3599788,14.7076541 86.7371236,14.922 C87.1142683,15.1363459 87.5856924,15.2435172 88.1514093,15.2435172 C88.7171261,15.2435172 89.192479,15.1363459 89.5774807,14.922 C89.9624824,14.7076541 90.2689084,14.420588 90.4967664,14.0607931 C90.7246244,13.7009982 90.8856943,13.2952781 90.9799807,12.8436207 C91.074267,12.3919633 91.1214093,11.92883 91.1214093,11.4542069 C91.1214093,10.9795838 91.074267,10.512623 90.9799807,10.0533103 C90.8856943,9.5939977 90.7246244,9.18827764 90.4967664,8.83613793 C90.2689084,8.48399822 89.9624824,8.19693217 89.5774807,7.97493103 C89.192479,7.7529299 88.7171261,7.64193103 88.1514093,7.64193103 C87.5856924,7.64193103 87.1142683,7.7529299 86.7371236,7.97493103 C86.3599788,8.19693217 86.0574815,8.48399822 85.8296236,8.83613793 C85.6017656,9.18827764 85.4406956,9.5939977 85.3464093,10.0533103 C85.2521229,10.512623 85.2049807,10.9795838 85.2049807,11.4542069 Z M81.8578378,11.4542069 C81.8578378,10.5049608 82.0071221,9.64376249 82.305695,8.87058621 C82.6042679,8.09740992 83.0285492,7.43907166 83.5785521,6.89555172 C84.1285551,6.35203179 84.7885481,5.93100149 85.5585521,5.63244828 C86.3285562,5.33389506 87.1928332,5.18462069 88.1514093,5.18462069 C89.1099854,5.18462069 89.9781912,5.33389506 90.7560521,5.63244828 C91.5339131,5.93100149 92.1978349,6.35203179 92.7478378,6.89555172 C93.2978408,7.43907166 93.7221221,8.09740992 94.020695,8.87058621 C94.3192679,9.64376249 94.4685521,10.5049608 94.4685521,11.4542069 C94.4685521,12.403453 94.3192679,13.2608238 94.020695,14.0263448 C93.7221221,14.7918659 93.2978408,15.4463766 92.7478378,15.9898966 C92.1978349,16.5334165 91.5339131,16.9506192 90.7560521,17.2415172 C89.9781912,17.5324152 89.1099854,17.6778621 88.1514093,17.6778621 C87.1928332,17.6778621 86.3285562,17.5324152 85.5585521,17.2415172 C84.7885481,16.9506192 84.1285551,16.5334165 83.5785521,15.9898966 C83.0285492,15.4463766 82.6042679,14.7918659 82.305695,14.0263448 C82.0071221,13.2608238 81.8578378,12.403453 81.8578378,11.4542069 Z M97.0709653,0.981931034 L97.0709653,17.3793103 L100.418108,17.3793103 L100.418108,13.2914483 L101.714537,12.0742759 L105.06168,17.3793103 L109.115965,17.3793103 L104.000965,9.86958621 L108.597394,5.50613793 L104.637394,5.50613793 L100.418108,9.77772414 L100.418108,0.981931034 L97.0709653,0.981931034 Z M118.624807,10.1681379 C118.467663,9.34137515 118.188737,8.7136573 117.788021,8.28496552 C117.387305,7.85627373 116.778382,7.64193103 115.961236,7.64193103 C115.426947,7.64193103 114.983023,7.72996463 114.62945,7.90603448 C114.275876,8.08210434 113.993023,8.30027458 113.780878,8.56055172 C113.568734,8.82082887 113.41945,9.09641234 113.333021,9.38731034 C113.246592,9.67820834 113.195521,9.93848164 113.179807,10.1681379 L118.624807,10.1681379 Z M113.179807,12.2350345 C113.22695,13.2914536 113.501947,14.0569631 114.004807,14.5315862 C114.507666,15.0062093 115.230517,15.2435172 116.173378,15.2435172 C116.849096,15.2435172 117.430519,15.0789327 117.917664,14.7497586 C118.40481,14.4205846 118.703378,14.0722777 118.813378,13.7048276 L121.759807,13.7048276 C121.288376,15.1286968 120.565526,16.1468245 119.591236,16.7592414 C118.616945,17.3716582 117.438386,17.6778621 116.055521,17.6778621 C115.096945,17.6778621 114.232668,17.5285877 113.462664,17.2300345 C112.69266,16.9314813 112.040524,16.5066234 111.506236,15.9554483 C110.971947,15.4042731 110.559452,14.7459349 110.268736,13.9804138 C109.97802,13.2148927 109.832664,12.3728322 109.832664,11.4542069 C109.832664,10.5662025 109.981948,9.7394521 110.280521,8.97393103 C110.579094,8.20840997 111.003375,7.54624415 111.553378,6.98741379 C112.103381,6.42858343 112.759446,5.9884154 113.521593,5.66689655 C114.283739,5.3453777 115.128373,5.18462069 116.055521,5.18462069 C117.092669,5.18462069 117.996231,5.37982564 118.766236,5.77024138 C119.53624,6.16065712 120.168733,6.68503117 120.663736,7.34337931 C121.158738,8.00172745 121.516234,8.75192679 121.736236,9.594 C121.956237,10.4360732 122.034807,11.3164092 121.97195,12.2350345 L113.179807,12.2350345 Z M124.079363,5.50613793 L124.079363,17.3793103 L127.426506,17.3793103 L127.426506,11.1556552 C127.426506,9.94613189 127.630789,9.07727853 128.039363,8.54906897 C128.447937,8.0208594 129.10793,7.75675862 130.019363,7.75675862 C130.820795,7.75675862 131.378647,7.99789413 131.692934,8.48017241 C132.007222,8.9624507 132.164363,9.69351232 132.164363,10.6733793 L132.164363,17.3793103 L135.511506,17.3793103 L135.511506,10.0762759 C135.511506,9.34137565 135.444721,8.67155474 135.311149,8.0667931 C135.177576,7.46203146 134.945793,6.94914002 134.615792,6.52810345 C134.28579,6.10706686 133.834009,5.77789774 133.260434,5.54058621 C132.68686,5.30327467 131.952225,5.18462069 131.056506,5.18462069 C130.349359,5.18462069 129.657938,5.34155015 128.98222,5.65541379 C128.306502,5.96927743 127.756508,6.47068618 127.33222,7.15965517 L127.261506,7.15965517 L127.261506,5.50613793 L124.079363,5.50613793 Z M140.77749,13.5211034 L137.595347,13.5211034 C137.626776,14.3172454 137.811417,14.9794111 138.149276,15.5076207 C138.487135,16.0358303 138.919274,16.460688 139.445705,16.7822069 C139.972136,17.1037258 140.573201,17.3333786 141.248919,17.4711724 C141.924637,17.6089662 142.616058,17.6778621 143.323205,17.6778621 C144.014637,17.6778621 144.694272,17.6127937 145.362133,17.4826552 C146.029994,17.3525166 146.623202,17.1266913 147.141776,16.8051724 C147.66035,16.4836536 148.080703,16.0587958 148.402847,15.5305862 C148.724992,15.0023766 148.886062,14.347866 148.886062,13.5670345 C148.886062,13.0158593 148.776063,12.552726 148.556062,12.1776207 C148.336061,11.8025153 148.045349,11.4886564 147.683919,11.2360345 C147.322489,10.9834126 146.909992,10.7805525 146.446419,10.6274483 C145.982845,10.4743441 145.507493,10.3442074 145.020347,10.2370345 C144.548916,10.1298616 144.08535,10.0303453 143.629633,9.93848276 C143.173917,9.84662026 142.769278,9.74327642 142.415705,9.62844828 C142.062131,9.51362013 141.775349,9.36434576 141.555347,9.18062069 C141.335346,8.99689562 141.225347,8.75958766 141.225347,8.46868966 C141.225347,8.22372294 141.288204,8.02851797 141.413919,7.88306897 C141.539634,7.73761997 141.692847,7.6266211 141.873562,7.55006897 C142.054277,7.47351689 142.254632,7.42375874 142.474633,7.4007931 C142.694634,7.37782746 142.898918,7.36634483 143.08749,7.36634483 C143.684636,7.36634483 144.203203,7.47734369 144.643205,7.69934483 C145.083207,7.92134597 145.326776,8.34620375 145.373919,8.97393103 L148.556062,8.97393103 C148.493204,8.23903082 148.300706,7.6304507 147.978562,7.14817241 C147.656417,6.66589413 147.251779,6.27931179 146.764633,5.98841379 C146.277488,5.69751579 145.723565,5.4908282 145.102847,5.36834483 C144.48213,5.24586146 143.841779,5.18462069 143.181776,5.18462069 C142.521773,5.18462069 141.877494,5.24203391 141.248919,5.35686207 C140.620344,5.47169023 140.054636,5.67072272 139.551776,5.95396552 C139.048917,6.2372083 138.644277,6.62379064 138.337847,7.11372414 C138.031418,7.60365763 137.878205,8.23137548 137.878205,8.99689655 C137.878205,9.5174509 137.988204,9.95761887 138.208205,10.3174138 C138.428206,10.6772087 138.718917,10.9757575 139.080347,11.213069 C139.441778,11.4503805 139.854274,11.6417579 140.317847,11.7872069 C140.781421,11.9326559 141.256774,12.058965 141.743919,12.1661379 C142.938211,12.4111046 143.869272,12.6560678 144.537133,12.9010345 C145.204994,13.1460012 145.538919,13.5134458 145.538919,14.0033793 C145.538919,14.2942773 145.468205,14.5354128 145.326776,14.7267931 C145.185347,14.9181734 145.008563,15.0712753 144.796419,15.1861034 C144.584275,15.3009316 144.348563,15.3851376 144.089276,15.4387241 C143.829989,15.4923106 143.582492,15.5191034 143.346776,15.5191034 C143.016774,15.5191034 142.698563,15.480828 142.392133,15.4042759 C142.085703,15.3277238 141.814634,15.2090698 141.578919,15.0483103 C141.343203,14.8875509 141.150706,14.6808633 141.001419,14.4282414 C140.852133,14.1756194 140.77749,13.8732432 140.77749,13.5211034 Z" id="Shape" fill="#1D1E38" fill-rule="nonzero"></path>
                    <ellipse id="Oval" fill="#0055FF" cx="159.584942" cy="5.27586207" rx="5.41505792" ry="5.27586207"></ellipse>
                </g>
            </g>
        </g>
    </g>
</svg>