<?xml version="1.0" encoding="UTF-8"?>
<svg width="15px" height="19px" viewBox="0 0 15 19" version="1.1" xmlns="http://www.w3.org/2000/svg" xmlns:xlink="http://www.w3.org/1999/xlink">
    <!-- Generator: Sketch 52.1 (67048) - http://www.bohemiancoding.com/sketch -->
    <title>pdf-file</title>
    <desc>Created with Sketch.</desc>
    <g id="desktop" stroke="none" stroke-width="1" fill="none" fill-rule="evenodd">
        <g id="standards-page" transform="translate(-248.000000, -1924.000000)" fill="#0855FF" fill-rule="nonzero">
            <g id="Group" transform="translate(248.000000, 1921.000000)">
                <g id="pdf-file" transform="translate(0.000000, 3.000000)">
                    <path d="M3.73187817,11.8094162 C3.73187817,12.1484772 3.48616751,12.3494543 3.08836294,12.3494543 C2.98005076,12.3494543 2.90147208,12.3446574 2.83755076,12.3302665 L2.83755076,11.3522208 C2.89153553,11.3378299 2.99474619,11.3227919 3.14714467,11.3227919 C3.52035533,11.3227919 3.73187817,11.5045812 3.73187817,11.8094162 Z M6.04222081,11.333033 C6.68569797,11.333033 7.08864213,11.6966117 7.08384518,12.3842893 C7.08384518,13.1751015 6.64164975,13.5483122 5.96364213,13.5435152 C5.87032995,13.5435152 5.76711929,13.5435152 5.70319797,13.5285152 L5.70319797,11.3624239 C5.76708122,11.3474619 5.87508883,11.333033 6.04222081,11.333033 Z M10.3346954,0 L2.96234772,0 C1.88531726,0 1.00873096,0.877195431 1.00873096,1.95361675 L1.00873096,9.17775381 L0.817918782,9.17775381 C0.38322335,9.17775381 0.0306852792,9.52994924 0.0306852792,9.96502538 L0.0306852792,14.7392893 C0.0306852792,15.1743274 0.383185279,15.5264848 0.817918782,15.5264848 L1.00873096,15.5264848 L1.00873096,16.4019289 C1.00873096,17.4795305 1.88531726,18.3555457 2.96234772,18.3555457 L13.021599,18.3555457 C14.0979442,18.3555457 14.9746447,17.4794924 14.9746447,16.4019289 L14.9746447,4.62369289 L10.3346954,0 Z M2.0959264,10.8266117 C2.32663706,10.7876269 2.6509264,10.758236 3.10781726,10.758236 C3.56954315,10.758236 3.89862944,10.8463706 4.11974619,11.023401 C4.33096447,11.1902284 4.47350254,11.4655964 4.47350254,11.7896574 C4.47350254,12.1136421 4.36549492,12.3890863 4.16897208,12.5756726 C3.91336294,12.8162817 3.53535533,12.9242893 3.0931599,12.9242893 C2.99474619,12.9242893 2.90653553,12.9194162 2.83755076,12.9098604 L2.83755076,14.0937183 L2.0959264,14.0937183 L2.0959264,10.8266117 Z M13.021599,17.1591244 L2.96234772,17.1591244 C2.54531726,17.1591244 2.20572335,16.8195305 2.20572335,16.4019289 L2.20572335,15.5264848 L11.5830076,15.5264848 C12.0177792,15.5264848 12.3702792,15.1743274 12.3702792,14.7392893 L12.3702792,9.96502538 C12.3702792,9.52994924 12.0177792,9.17775381 11.5830076,9.17775381 L2.20572335,9.17775381 L2.20572335,1.95361675 C2.20572335,1.53719543 2.54535533,1.19760152 2.96234772,1.19760152 L9.88709391,1.19036802 L9.88709391,3.75 C9.88709391,4.49763959 10.4937183,5.10483503 11.2419289,5.10483503 L13.7493655,5.09763959 L13.7775761,16.4018909 C13.7775761,16.8195305 13.4385914,17.1591244 13.021599,17.1591244 Z M4.9517132,14.0787183 L4.9517132,10.8266117 C5.22677665,10.7828299 5.58529188,10.758236 5.96364213,10.758236 C6.59242386,10.758236 7.00016497,10.8710406 7.31965736,11.1116117 C7.66347716,11.3672208 7.87945431,11.7746574 7.87945431,12.3596193 C7.87945431,12.993236 7.64874365,13.4306726 7.3292132,13.7006345 C6.98059645,13.9904315 6.44992386,14.127868 5.80161168,14.127868 C5.41336294,14.127868 5.13829949,14.1032741 4.9517132,14.0787183 Z M10.3131472,12.1532741 L10.3131472,12.7622589 L9.12418782,12.7622589 L9.12418782,14.0937183 L8.37266497,14.0937183 L8.37266497,10.7828299 L10.3965228,10.7828299 L10.3965228,11.3966117 L9.12418782,11.3966117 L9.12418782,12.1532741 L10.3131472,12.1532741 Z" id="Shape"></path>
                </g>
            </g>
        </g>
    </g>
</svg>